# xmcd CD database file
#
# Track frame offsets:
#	150
#	14385
#	27493
#	42995
#	64876
#	90338
#	105757
#	119308
#	135255
#	151210
#	162231
#	177924
#	192970
#	206921
#	232052
#
# Disc length: 3326 seconds
#
# Revision: 0
# Processed by: cddbd v1.5.2PL0 Copyright (c) Steve Scherf et al.
# Submitted via: CDex 1.70beta2
#
DISCID=bf0cfc0f
DTITLE=Various Artist - Cuban Gold CD2
DYEAR=2010
DGENRE=Country
TTITLE0=Tombon criollo 
TTITLE1=Francisco Guayabal 
TTITLE2=La gloria eres tu
TTITLE3=Abre
TTITLE4=Soy la rumba
TTITLE5=Que manera de quererte
TTITLE6=Santa Barbara 
TTITLE7=Yo si tumbo cana
TTITLE8=Estoy suave
TTITLE9=Las chicas del cha cha cha 
TTITLE10=La brocha
TTITLE11=Trombon majadero 
TTITLE12=Baila que baila mi son
TTITLE13=Son al son
TTITLE14=Mira que son
EXTD=YEAR: 2010
EXTT0=
EXTT1=
EXTT2=
EXTT3=
EXTT4=
EXTT5=
EXTT6=
EXTT7=
EXTT8=
EXTT9=
EXTT10=
EXTT11=
EXTT12=
EXTT13=
EXTT14=
PLAYORDER=
